<svg width="1024" height="1024" viewBox="0 0 1024 1024" xmlns="http://www.w3.org/2000/svg">
  <defs>
    <linearGradient id="bgGradient" x1="0%" y1="0%" x2="100%" y2="100%">
      <stop offset="0%" style="stop-color:#FF6B6B;stop-opacity:1" />
      <stop offset="100%" style="stop-color:#EE5A5A;stop-opacity:1" />
    </linearGradient>
  </defs>

  <!-- 背景 - 圆角矩形 -->
  <rect x="0" y="0" width="1024" height="1024" rx="220" ry="220" fill="url(#bgGradient)"/>

  <!-- 番茄形状 -->
  <ellipse cx="512" cy="560" rx="200" ry="210" fill="#E74C3C" opacity="0.9"/>

  <!-- 番茄高光 -->
  <ellipse cx="440" cy="500" rx="40" ry="50" fill="#FFFFFF" opacity="0.15"/>

  <!-- 时钟圆圈 -->
  <circle cx="512" cy="560" r="150" fill="#FFFFFF" opacity="0.95"/>

  <!-- 时钟刻度 -->
  <g stroke="#2C3E50" stroke-width="6" stroke-linecap="round">
    <line x1="512" y1="435" x2="512" y2="450"/>
    <line x1="512" y1="670" x2="512" y2="685"/>
    <line x1="417" y1="560" x2="432" y2="560"/>
    <line x1="592" y1="560" x2="607" y2="560"/>
  </g>

  <!-- 时钟指针 - 指向 10:10 位置 -->
  <g stroke="#2C3E50" stroke-linecap="round">
    <!-- 时针 -->
    <line x1="512" y1="560" x2="512" y2="485" stroke-width="10"/>
    <!-- 分针 -->
    <line x1="512" y1="560" x2="575" y2="515" stroke-width="8"/>
    <!-- 中心点 -->
    <circle cx="512" cy="560" r="12" fill="#2C3E50" stroke="none"/>
  </g>

  <!-- 番茄叶子 -->
  <g fill="#27AE60">
    <ellipse cx="480" cy="340" rx="40" ry="20" transform="rotate(-30 480 340)"/>
    <ellipse cx="512" cy="325" rx="40" ry="20" transform="rotate(0 512 325)"/>
    <ellipse cx="544" cy="340" rx="40" ry="20" transform="rotate(30 544 340)"/>
  </g>
</svg>
